<?xml version='1.0' encoding='UTF-8'?>
<!DOCTYPE svg PUBLIC "-//W3C//DTD SVG 1.0//EN" "http://www.w3.org/TR/2001/REC-SVG-20010904/DTD/svg10.dtd">
<svg viewBox="0 0 507 760" xmlns="http://www.w3.org/2000/svg" xmlns:inkspace="http://www.inkscape.org/namespaces/inkscape" xmlns:xlink="http://www.w3.org/1999/xlink">
  <defs id="defs_block">
    <filter height="1.504" id="filter_blur" inkspace:collect="always" width="1.1575" x="-0.07875" y="-0.252">
      <feGaussianBlur id="feGaussianBlur3780" inkspace:collect="always" stdDeviation="4.2" />
    </filter>
  </defs>
  <title>blockdiag</title>
  <desc>blockdiag {
AT.ooni.io -&gt; ALT4.ASPMX.L.GOOGLE.COM;
AT.ooni.io[width=70];
ALT4.ASPMX.L.GOOGLE.COM[width=161];
AT.ooni.io -&gt; ALT3.ASPMX.L.GOOGLE.COM;
AT.ooni.io[width=70];
ALT3.ASPMX.L.GOOGLE.COM[width=161];
AT.ooni.io -&gt; ALT2.ASPMX.L.GOOGLE.COM;
AT.ooni.io[width=70];
ALT2.ASPMX.L.GOOGLE.COM[width=161];
AT.ooni.io -&gt; ALT1.ASPMX.L.GOOGLE.COM;
AT.ooni.io[width=70];
ALT1.ASPMX.L.GOOGLE.COM[width=161];
AT.ooni.io -&gt; ASPMX.L.GOOGLE.COM;
AT.ooni.io[width=70];
ASPMX.L.GOOGLE.COM[width=126];
AT.ooni.org -&gt; ASPMX.L.GOOGLE.COM;
AT.ooni.org[width=77];
ASPMX.L.GOOGLE.COM[width=126];
AT.ooni.org -&gt; ALT1.ASPMX.L.GOOGLE.COM;
AT.ooni.org[width=77];
ALT1.ASPMX.L.GOOGLE.COM[width=161];
AT.ooni.org -&gt; ALT2.ASPMX.L.GOOGLE.COM;
AT.ooni.org[width=77];
ALT2.ASPMX.L.GOOGLE.COM[width=161];
AT.ooni.org -&gt; ASPMX2.GOOGLEMAIL.COM;
AT.ooni.org[width=77];
ASPMX2.GOOGLEMAIL.COM[width=147];
AT.ooni.org -&gt; ASPMX3.GOOGLEMAIL.COM;
AT.ooni.org[width=77];
ASPMX3.GOOGLEMAIL.COM[width=147];
AT.openobservatory.com -&gt; mx.runbox.com;
AT.openobservatory.com[width=154];
mx.runbox.com[width=91];
AT.openobservatory.org -&gt; ASPMX.L.GOOGLE.COM;
AT.openobservatory.org[width=154];
ASPMX.L.GOOGLE.COM[width=126];
AT.openobservatory.org -&gt; ALT1.ASPMX.L.GOOGLE.COM;
AT.openobservatory.org[width=154];
ALT1.ASPMX.L.GOOGLE.COM[width=161];
AT.openobservatory.org -&gt; ALT2.ASPMX.L.GOOGLE.COM;
AT.openobservatory.org[width=154];
ALT2.ASPMX.L.GOOGLE.COM[width=161];
AT.openobservatory.org -&gt; ALT3.ASPMX.L.GOOGLE.COM;
AT.openobservatory.org[width=154];
ALT3.ASPMX.L.GOOGLE.COM[width=161];
AT.openobservatory.org -&gt; ALT4.ASPMX.L.GOOGLE.COM;
AT.openobservatory.org[width=154];
ALT4.ASPMX.L.GOOGLE.COM[width=161];
}</desc>
  <rect fill="rgb(0,0,0)" height="40" stroke="rgb(0,0,0)" style="filter:url(#filter_blur);opacity:0.7;fill-opacity:1" width="70" x="109" y="46" />
  <rect fill="rgb(0,0,0)" height="40" stroke="rgb(0,0,0)" style="filter:url(#filter_blur);opacity:0.7;fill-opacity:1" width="78" x="105" y="446" />
  <rect fill="rgb(0,0,0)" height="40" stroke="rgb(0,0,0)" style="filter:url(#filter_blur);opacity:0.7;fill-opacity:1" width="154" x="67" y="606" />
  <rect fill="rgb(0,0,0)" height="40" stroke="rgb(0,0,0)" style="filter:url(#filter_blur);opacity:0.7;fill-opacity:1" width="161" x="285" y="46" />
  <rect fill="rgb(0,0,0)" height="40" stroke="rgb(0,0,0)" style="filter:url(#filter_blur);opacity:0.7;fill-opacity:1" width="161" x="285" y="126" />
  <rect fill="rgb(0,0,0)" height="40" stroke="rgb(0,0,0)" style="filter:url(#filter_blur);opacity:0.7;fill-opacity:1" width="161" x="285" y="206" />
  <rect fill="rgb(0,0,0)" height="40" stroke="rgb(0,0,0)" style="filter:url(#filter_blur);opacity:0.7;fill-opacity:1" width="161" x="285" y="286" />
  <rect fill="rgb(0,0,0)" height="40" stroke="rgb(0,0,0)" style="filter:url(#filter_blur);opacity:0.7;fill-opacity:1" width="127" x="302" y="366" />
  <rect fill="rgb(0,0,0)" height="40" stroke="rgb(0,0,0)" style="filter:url(#filter_blur);opacity:0.7;fill-opacity:1" width="147" x="292" y="446" />
  <rect fill="rgb(0,0,0)" height="40" stroke="rgb(0,0,0)" style="filter:url(#filter_blur);opacity:0.7;fill-opacity:1" width="147" x="292" y="526" />
  <rect fill="rgb(0,0,0)" height="40" stroke="rgb(0,0,0)" style="filter:url(#filter_blur);opacity:0.7;fill-opacity:1" width="154" x="67" y="686" />
  <rect fill="rgb(0,0,0)" height="40" stroke="rgb(0,0,0)" style="filter:url(#filter_blur);opacity:0.7;fill-opacity:1" width="91" x="320" y="686" />
  <rect fill="rgb(255,255,255)" height="40" stroke="rgb(0,0,0)" width="70" x="106" y="40" />
  <text fill="rgb(0,0,0)" font-family="sans-serif" font-size="11" font-style="normal" font-weight="normal" text-anchor="middle" textLength="55" x="141.5" y="66">AT.ooni.io</text>
  <rect fill="rgb(255,255,255)" height="40" stroke="rgb(0,0,0)" width="78" x="102" y="440" />
  <text fill="rgb(0,0,0)" font-family="sans-serif" font-size="11" font-style="normal" font-weight="normal" text-anchor="middle" textLength="64" x="141.0" y="467">AT.ooni.org</text>
  <rect fill="rgb(255,255,255)" height="40" stroke="rgb(0,0,0)" width="154" x="64" y="600" />
  <text fill="rgb(0,0,0)" font-family="sans-serif" font-size="11" font-style="normal" font-weight="normal" text-anchor="middle" textLength="132" x="141.0" y="627">AT.openobservatory.org</text>
  <rect fill="rgb(255,255,255)" height="40" stroke="rgb(0,0,0)" width="161" x="282" y="40" />
  <text fill="rgb(0,0,0)" font-family="sans-serif" font-size="11" font-style="normal" font-weight="normal" text-anchor="middle" textLength="161" x="362.5" y="59">ALT4.ASPMX.L.GOOGLE.CO</text>
  <text fill="rgb(0,0,0)" font-family="sans-serif" font-size="11" font-style="normal" font-weight="normal" text-anchor="middle" textLength="11" x="362.5" y="72">M</text>
  <rect fill="rgb(255,255,255)" height="40" stroke="rgb(0,0,0)" width="161" x="282" y="120" />
  <text fill="rgb(0,0,0)" font-family="sans-serif" font-size="11" font-style="normal" font-weight="normal" text-anchor="middle" textLength="161" x="362.5" y="139">ALT3.ASPMX.L.GOOGLE.CO</text>
  <text fill="rgb(0,0,0)" font-family="sans-serif" font-size="11" font-style="normal" font-weight="normal" text-anchor="middle" textLength="11" x="362.5" y="152">M</text>
  <rect fill="rgb(255,255,255)" height="40" stroke="rgb(0,0,0)" width="161" x="282" y="200" />
  <text fill="rgb(0,0,0)" font-family="sans-serif" font-size="11" font-style="normal" font-weight="normal" text-anchor="middle" textLength="161" x="362.5" y="219">ALT2.ASPMX.L.GOOGLE.CO</text>
  <text fill="rgb(0,0,0)" font-family="sans-serif" font-size="11" font-style="normal" font-weight="normal" text-anchor="middle" textLength="11" x="362.5" y="232">M</text>
  <rect fill="rgb(255,255,255)" height="40" stroke="rgb(0,0,0)" width="161" x="282" y="280" />
  <text fill="rgb(0,0,0)" font-family="sans-serif" font-size="11" font-style="normal" font-weight="normal" text-anchor="middle" textLength="161" x="362.5" y="299">ALT1.ASPMX.L.GOOGLE.CO</text>
  <text fill="rgb(0,0,0)" font-family="sans-serif" font-size="11" font-style="normal" font-weight="normal" text-anchor="middle" textLength="11" x="362.5" y="312">M</text>
  <rect fill="rgb(255,255,255)" height="40" stroke="rgb(0,0,0)" width="127" x="299" y="360" />
  <text fill="rgb(0,0,0)" font-family="sans-serif" font-size="11" font-style="normal" font-weight="normal" text-anchor="middle" textLength="120" x="363.0" y="379">ASPMX.L.GOOGLE.C</text>
  <text fill="rgb(0,0,0)" font-family="sans-serif" font-size="11" font-style="normal" font-weight="normal" text-anchor="middle" textLength="20" x="363.0" y="392">OM</text>
  <rect fill="rgb(255,255,255)" height="40" stroke="rgb(0,0,0)" width="147" x="289" y="440" />
  <text fill="rgb(0,0,0)" font-family="sans-serif" font-size="11" font-style="normal" font-weight="normal" text-anchor="middle" textLength="147" x="362.5" y="459">ASPMX2.GOOGLEMAIL.C</text>
  <text fill="rgb(0,0,0)" font-family="sans-serif" font-size="11" font-style="normal" font-weight="normal" text-anchor="middle" textLength="20" x="363.0" y="472">OM</text>
  <rect fill="rgb(255,255,255)" height="40" stroke="rgb(0,0,0)" width="147" x="289" y="520" />
  <text fill="rgb(0,0,0)" font-family="sans-serif" font-size="11" font-style="normal" font-weight="normal" text-anchor="middle" textLength="147" x="362.5" y="539">ASPMX3.GOOGLEMAIL.C</text>
  <text fill="rgb(0,0,0)" font-family="sans-serif" font-size="11" font-style="normal" font-weight="normal" text-anchor="middle" textLength="20" x="363.0" y="552">OM</text>
  <rect fill="rgb(255,255,255)" height="40" stroke="rgb(0,0,0)" width="154" x="64" y="680" />
  <text fill="rgb(0,0,0)" font-family="sans-serif" font-size="11" font-style="normal" font-weight="normal" text-anchor="middle" textLength="137" x="141.5" y="707">AT.openobservatory.com</text>
  <rect fill="rgb(255,255,255)" height="40" stroke="rgb(0,0,0)" width="91" x="317" y="680" />
  <text fill="rgb(0,0,0)" font-family="sans-serif" font-size="11" font-style="normal" font-weight="normal" text-anchor="middle" textLength="87" x="362.5" y="706">mx.runbox.com</text>
  <path d="M 176 60 L 274 60" fill="none" stroke="rgb(0,0,0)" />
  <polygon fill="rgb(0,0,0)" points="281,60 274,56 274,64 281,60" stroke="rgb(0,0,0)" />
  <path d="M 176 60 L 250 60" fill="none" stroke="rgb(0,0,0)" />
  <path d="M 250 60 L 250 140" fill="none" stroke="rgb(0,0,0)" />
  <path d="M 250 140 L 262.0 140" fill="none" stroke="rgb(0,0,0)" />
  <path d="M 262.0 140.0 A4.0,4.0 0 0 1 270.0 140.0" fill="none" stroke="rgb(0,0,0)" />
  <path d="M 270.0 140 L 274 140" fill="none" stroke="rgb(0,0,0)" />
  <polygon fill="rgb(0,0,0)" points="281,140 274,136 274,144 281,140" stroke="rgb(0,0,0)" />
  <path d="M 176 60 L 250 60" fill="none" stroke="rgb(0,0,0)" />
  <path d="M 250 60 L 250 220" fill="none" stroke="rgb(0,0,0)" />
  <path d="M 250 220 L 262.0 220" fill="none" stroke="rgb(0,0,0)" />
  <path d="M 262.0 220.0 A4.0,4.0 0 0 1 270.0 220.0" fill="none" stroke="rgb(0,0,0)" />
  <path d="M 270.0 220 L 274 220" fill="none" stroke="rgb(0,0,0)" />
  <polygon fill="rgb(0,0,0)" points="281,220 274,216 274,224 281,220" stroke="rgb(0,0,0)" />
  <path d="M 176 60 L 250 60" fill="none" stroke="rgb(0,0,0)" />
  <path d="M 250 60 L 250 300" fill="none" stroke="rgb(0,0,0)" />
  <path d="M 250 300 L 262.0 300" fill="none" stroke="rgb(0,0,0)" />
  <path d="M 262.0 300.0 A4.0,4.0 0 0 1 270.0 300.0" fill="none" stroke="rgb(0,0,0)" />
  <path d="M 270.0 300 L 274 300" fill="none" stroke="rgb(0,0,0)" />
  <polygon fill="rgb(0,0,0)" points="281,300 274,296 274,304 281,300" stroke="rgb(0,0,0)" />
  <path d="M 176 60 L 250 60" fill="none" stroke="rgb(0,0,0)" />
  <path d="M 250 60 L 250 380" fill="none" stroke="rgb(0,0,0)" />
  <path d="M 250 380 L 262.0 380" fill="none" stroke="rgb(0,0,0)" />
  <path d="M 262.0 380.0 A4.0,4.0 0 0 1 270.0 380.0" fill="none" stroke="rgb(0,0,0)" />
  <path d="M 270.0 380 L 291 380" fill="none" stroke="rgb(0,0,0)" />
  <polygon fill="rgb(0,0,0)" points="298,380 291,376 291,384 298,380" stroke="rgb(0,0,0)" />
  <path d="M 180 460 L 266 460" fill="none" stroke="rgb(0,0,0)" />
  <path d="M 266 460 L 266 380" fill="none" stroke="rgb(0,0,0)" />
  <path d="M 266 380 L 291 380" fill="none" stroke="rgb(0,0,0)" />
  <polygon fill="rgb(0,0,0)" points="298,380 291,376 291,384 298,380" stroke="rgb(0,0,0)" />
  <path d="M 180 460 L 266 460" fill="none" stroke="rgb(0,0,0)" />
  <path d="M 266 460 L 266 300" fill="none" stroke="rgb(0,0,0)" />
  <path d="M 266 300 L 274 300" fill="none" stroke="rgb(0,0,0)" />
  <polygon fill="rgb(0,0,0)" points="281,300 274,296 274,304 281,300" stroke="rgb(0,0,0)" />
  <path d="M 180 460 L 266 460" fill="none" stroke="rgb(0,0,0)" />
  <path d="M 266 460 L 266 220" fill="none" stroke="rgb(0,0,0)" />
  <path d="M 266 220 L 274 220" fill="none" stroke="rgb(0,0,0)" />
  <polygon fill="rgb(0,0,0)" points="281,220 274,216 274,224 281,220" stroke="rgb(0,0,0)" />
  <path d="M 180 460 L 262.0 460" fill="none" stroke="rgb(0,0,0)" />
  <path d="M 262.0 460.0 A4.0,4.0 0 0 1 270.0 460.0" fill="none" stroke="rgb(0,0,0)" />
  <path d="M 270.0 460 L 281 460" fill="none" stroke="rgb(0,0,0)" />
  <polygon fill="rgb(0,0,0)" points="288,460 281,456 281,464 288,460" stroke="rgb(0,0,0)" />
  <path d="M 180 460 L 250 460" fill="none" stroke="rgb(0,0,0)" />
  <path d="M 250 460 L 250 540" fill="none" stroke="rgb(0,0,0)" />
  <path d="M 250 540 L 262.0 540" fill="none" stroke="rgb(0,0,0)" />
  <path d="M 262.0 540.0 A4.0,4.0 0 0 1 270.0 540.0" fill="none" stroke="rgb(0,0,0)" />
  <path d="M 270.0 540 L 281 540" fill="none" stroke="rgb(0,0,0)" />
  <polygon fill="rgb(0,0,0)" points="288,540 281,536 281,544 288,540" stroke="rgb(0,0,0)" />
  <path d="M 218 700 L 309 700" fill="none" stroke="rgb(0,0,0)" />
  <polygon fill="rgb(0,0,0)" points="316,700 309,696 309,704 316,700" stroke="rgb(0,0,0)" />
  <path d="M 218 620 L 266 620" fill="none" stroke="rgb(0,0,0)" />
  <path d="M 266 620 L 266 380" fill="none" stroke="rgb(0,0,0)" />
  <path d="M 266 380 L 291 380" fill="none" stroke="rgb(0,0,0)" />
  <polygon fill="rgb(0,0,0)" points="298,380 291,376 291,384 298,380" stroke="rgb(0,0,0)" />
  <path d="M 218 620 L 266 620" fill="none" stroke="rgb(0,0,0)" />
  <path d="M 266 620 L 266 300" fill="none" stroke="rgb(0,0,0)" />
  <path d="M 266 300 L 274 300" fill="none" stroke="rgb(0,0,0)" />
  <polygon fill="rgb(0,0,0)" points="281,300 274,296 274,304 281,300" stroke="rgb(0,0,0)" />
  <path d="M 218 620 L 266 620" fill="none" stroke="rgb(0,0,0)" />
  <path d="M 266 620 L 266 220" fill="none" stroke="rgb(0,0,0)" />
  <path d="M 266 220 L 274 220" fill="none" stroke="rgb(0,0,0)" />
  <polygon fill="rgb(0,0,0)" points="281,220 274,216 274,224 281,220" stroke="rgb(0,0,0)" />
  <path d="M 218 620 L 266 620" fill="none" stroke="rgb(0,0,0)" />
  <path d="M 266 620 L 266 140" fill="none" stroke="rgb(0,0,0)" />
  <path d="M 266 140 L 274 140" fill="none" stroke="rgb(0,0,0)" />
  <polygon fill="rgb(0,0,0)" points="281,140 274,136 274,144 281,140" stroke="rgb(0,0,0)" />
  <path d="M 218 620 L 266 620" fill="none" stroke="rgb(0,0,0)" />
  <path d="M 266 620 L 266 60" fill="none" stroke="rgb(0,0,0)" />
  <path d="M 266 60 L 274 60" fill="none" stroke="rgb(0,0,0)" />
  <polygon fill="rgb(0,0,0)" points="281,60 274,56 274,64 281,60" stroke="rgb(0,0,0)" />
</svg>
