<?xml version='1.0' encoding='UTF-8'?>
<!DOCTYPE svg PUBLIC "-//W3C//DTD SVG 1.0//EN" "http://www.w3.org/TR/2001/REC-SVG-20010904/DTD/svg10.dtd">
<svg viewBox="0 0 829 280" xmlns="http://www.w3.org/2000/svg" xmlns:inkspace="http://www.inkscape.org/namespaces/inkscape" xmlns:xlink="http://www.w3.org/1999/xlink">
  <defs id="defs_block">
    <filter height="1.504" id="filter_blur" inkspace:collect="always" width="1.1575" x="-0.07875" y="-0.252">
      <feGaussianBlur id="feGaussianBlur3780" inkspace:collect="always" stdDeviation="4.2" />
    </filter>
  </defs>
  <title>blockdiag</title>
  <desc>blockdiag {
AT.ooni.nu -&gt; https▾▾▾ooni.org;
AT.ooni.nu[width=70];
https▾▾▾ooni.org[width=112];
censorshipwiki.ooni.nu -&gt; https▾▾▾trac.torproject.org▾projects▾tor▾wiki▾doc▾OONI▾censorshipwiki;
censorshipwiki.ooni.nu[width=154];
https▾▾▾trac.torproject.org▾projects▾tor▾wiki▾doc▾OONI▾censorshipwiki[width=483];
www.ooni.nu -&gt; https▾▾▾ooni.org;
www.ooni.nu[width=77];
https▾▾▾ooni.org[width=112];
}</desc>
  <rect fill="rgb(0,0,0)" height="40" stroke="rgb(0,0,0)" style="filter:url(#filter_blur);opacity:0.7;fill-opacity:1" width="70" x="109" y="46" />
  <rect fill="rgb(0,0,0)" height="40" stroke="rgb(0,0,0)" style="filter:url(#filter_blur);opacity:0.7;fill-opacity:1" width="78" x="105" y="126" />
  <rect fill="rgb(0,0,0)" height="40" stroke="rgb(0,0,0)" style="filter:url(#filter_blur);opacity:0.7;fill-opacity:1" width="113" x="470" y="46" />
  <rect fill="rgb(0,0,0)" height="40" stroke="rgb(0,0,0)" style="filter:url(#filter_blur);opacity:0.7;fill-opacity:1" width="154" x="67" y="206" />
  <rect fill="rgb(0,0,0)" height="40" stroke="rgb(0,0,0)" style="filter:url(#filter_blur);opacity:0.7;fill-opacity:1" width="483" x="285" y="206" />
  <rect fill="rgb(255,255,255)" height="40" stroke="rgb(0,0,0)" width="70" x="106" y="40" />
  <text fill="rgb(0,0,0)" font-family="sans-serif" font-size="11" font-style="normal" font-weight="normal" text-anchor="middle" textLength="52" x="141.0" y="66">AT.ooni.nu</text>
  <rect fill="rgb(255,255,255)" height="40" stroke="rgb(0,0,0)" width="78" x="102" y="120" />
  <text fill="rgb(0,0,0)" font-family="sans-serif" font-size="11" font-style="normal" font-weight="normal" text-anchor="middle" textLength="67" x="141.5" y="146">www.ooni.nu</text>
  <rect fill="rgb(255,255,255)" height="40" stroke="rgb(0,0,0)" width="113" x="467" y="40" />
  <text fill="rgb(0,0,0)" font-family="sans-serif" font-size="11" font-style="normal" font-weight="normal" text-anchor="middle" textLength="104" x="524.0" y="67">https▾▾▾ooni.org</text>
  <rect fill="rgb(255,255,255)" height="40" stroke="rgb(0,0,0)" width="154" x="64" y="200" />
  <text fill="rgb(0,0,0)" font-family="sans-serif" font-size="11" font-style="normal" font-weight="normal" text-anchor="middle" textLength="118" x="141.0" y="227">censorshipwiki.ooni.nu</text>
  <rect fill="rgb(255,255,255)" height="40" stroke="rgb(0,0,0)" width="483" x="282" y="200" />
  <text fill="rgb(0,0,0)" font-family="sans-serif" font-size="11" font-style="normal" font-weight="normal" text-anchor="middle" textLength="430" x="524.0" y="227">https▾▾▾trac.torproject.org▾projects▾tor▾wiki▾doc▾OONI▾censorshipwiki</text>
  <path d="M 176 60 L 459 60" fill="none" stroke="rgb(0,0,0)" />
  <polygon fill="rgb(0,0,0)" points="466,60 459,56 459,64 466,60" stroke="rgb(0,0,0)" />
  <path d="M 218 220 L 274 220" fill="none" stroke="rgb(0,0,0)" />
  <polygon fill="rgb(0,0,0)" points="281,220 274,216 274,224 281,220" stroke="rgb(0,0,0)" />
  <path d="M 180 140 L 266 140" fill="none" stroke="rgb(0,0,0)" />
  <path d="M 266 140 L 266 60" fill="none" stroke="rgb(0,0,0)" />
  <path d="M 266 60 L 459 60" fill="none" stroke="rgb(0,0,0)" />
  <polygon fill="rgb(0,0,0)" points="466,60 459,56 459,64 466,60" stroke="rgb(0,0,0)" />
</svg>
